<?xml version="1.0" encoding="UTF-8"?>
<svg id="Layer_2" data-name="Layer 2" xmlns="http://www.w3.org/2000/svg" xmlns:xlink="http://www.w3.org/1999/xlink" viewBox="0 0 308.09 169.81">
  <defs>
    <style>
      .cls-1 {
        fill: url(#linear-gradient-12);
      }

      .cls-1, .cls-2, .cls-3, .cls-4, .cls-5, .cls-6, .cls-7, .cls-8, .cls-9, .cls-10, .cls-11, .cls-12, .cls-13, .cls-14, .cls-15, .cls-16, .cls-17, .cls-18, .cls-19, .cls-20, .cls-21, .cls-22, .cls-23, .cls-24, .cls-25, .cls-26, .cls-27, .cls-28, .cls-29, .cls-30, .cls-31 {
        stroke-width: 0px;
      }

      .cls-2 {
        fill: url(#linear-gradient-17);
      }

      .cls-3 {
        fill: url(#linear-gradient-19);
      }

      .cls-4 {
        fill: url(#linear-gradient);
      }

      .cls-5 {
        fill: #848180;
      }

      .cls-6 {
        fill: url(#linear-gradient-21);
      }

      .cls-7 {
        fill: url(#linear-gradient-6);
      }

      .cls-8 {
        fill: #1b4f7e;
      }

      .cls-9 {
        fill: url(#linear-gradient-15);
      }

      .cls-10 {
        fill: url(#linear-gradient-11);
      }

      .cls-11 {
        fill: url(#linear-gradient-5);
      }

      .cls-12 {
        fill: #f16b2a;
      }

      .cls-13 {
        fill: url(#linear-gradient-13);
      }

      .cls-14 {
        fill: url(#linear-gradient-23);
      }

      .cls-15 {
        fill: url(#linear-gradient-25);
      }

      .cls-16 {
        fill: url(#linear-gradient-16);
      }

      .cls-17 {
        fill: url(#linear-gradient-22);
      }

      .cls-18 {
        fill: url(#linear-gradient-20);
      }

      .cls-19 {
        fill: url(#linear-gradient-14);
      }

      .cls-20 {
        fill: url(#linear-gradient-2);
      }

      .cls-32 {
        fill: none;
        stroke: #0c2034;
        stroke-miterlimit: 10;
        stroke-width: 4px;
      }

      .cls-21 {
        fill: url(#linear-gradient-7);
      }

      .cls-22 {
        fill: url(#linear-gradient-3);
      }

      .cls-23 {
        fill: url(#linear-gradient-9);
      }

      .cls-24 {
        fill: url(#linear-gradient-27);
      }

      .cls-25 {
        fill: url(#linear-gradient-8);
      }

      .cls-26 {
        fill: url(#linear-gradient-24);
      }

      .cls-27 {
        fill: url(#linear-gradient-26);
      }

      .cls-28 {
        fill: url(#linear-gradient-18);
      }

      .cls-29 {
        fill: url(#linear-gradient-28);
      }

      .cls-30 {
        fill: url(#linear-gradient-10);
      }

      .cls-31 {
        fill: url(#linear-gradient-4);
      }
    </style>
    <linearGradient id="linear-gradient" x1="11.79" y1="126.1" x2="49" y2="126.1" gradientUnits="userSpaceOnUse">
      <stop offset="0" stop-color="#5b9145"/>
      <stop offset=".29" stop-color="#6ea24a"/>
      <stop offset="1" stop-color="#9acb57"/>
    </linearGradient>
    <linearGradient id="linear-gradient-2" x1="45.53" y1="151.98" x2="69.23" y2="151.98" xlink:href="#linear-gradient"/>
    <linearGradient id="linear-gradient-3" x1="30.12" y1="138.56" x2="57.8" y2="138.56" xlink:href="#linear-gradient"/>
    <linearGradient id="linear-gradient-4" x1="42.59" y1="141.91" x2="63.06" y2="141.91" xlink:href="#linear-gradient"/>
    <linearGradient id="linear-gradient-5" x1="18.03" y1="115.38" x2="45.68" y2="115.38" xlink:href="#linear-gradient"/>
    <linearGradient id="linear-gradient-6" x1="32.31" y1="128.56" x2="53.04" y2="128.56" xlink:href="#linear-gradient"/>
    <linearGradient id="linear-gradient-7" x1="45.48" y1="29.27" x2="69.23" y2="29.27" gradientUnits="userSpaceOnUse">
      <stop offset="0" stop-color="#fbb040"/>
      <stop offset="1" stop-color="#f7941d"/>
    </linearGradient>
    <linearGradient id="linear-gradient-8" x1="11.78" y1="55.2" x2="48.98" y2="55.2" xlink:href="#linear-gradient-7"/>
    <linearGradient id="linear-gradient-9" x1="119.16" y1="29.24" x2="142.95" y2="29.24" xlink:href="#linear-gradient-7"/>
    <linearGradient id="linear-gradient-10" x1="92.08" y1="19.74" x2="96.34" y2="19.74" xlink:href="#linear-gradient-7"/>
    <linearGradient id="linear-gradient-11" x1="0" y1="90.64" x2="41.04" y2="90.64" xlink:href="#linear-gradient-7"/>
    <linearGradient id="linear-gradient-12" x1="68.92" y1="24.99" x2="82.17" y2="24.99" xlink:href="#linear-gradient-7"/>
    <linearGradient id="linear-gradient-13" x1="8.41" y1="72.95" x2="43.31" y2="72.95" xlink:href="#linear-gradient-7"/>
    <linearGradient id="linear-gradient-14" x1="106.71" y1="25.1" x2="120.06" y2="25.1" xlink:href="#linear-gradient-7"/>
    <linearGradient id="linear-gradient-15" x1="8.28" y1="107.83" x2="43.17" y2="107.83" xlink:href="#linear-gradient-7"/>
    <linearGradient id="linear-gradient-16" x1="30.58" y1="42.37" x2="57.93" y2="42.37" xlink:href="#linear-gradient-7"/>
    <linearGradient id="linear-gradient-17" x1="99.19" y1="26.32" x2="106.97" y2="26.32" xlink:href="#linear-gradient-7"/>
    <linearGradient id="linear-gradient-18" x1="12.97" y1="82.26" x2="41.67" y2="82.26" xlink:href="#linear-gradient-7"/>
    <linearGradient id="linear-gradient-19" x1="125" y1="39.08" x2="145.33" y2="39.08" xlink:href="#linear-gradient-7"/>
    <linearGradient id="linear-gradient-20" x1="28.3" y1="51.14" x2="53.16" y2="51.14" xlink:href="#linear-gradient-7"/>
    <linearGradient id="linear-gradient-21" x1="61.26" y1="30.66" x2="75.65" y2="30.66" xlink:href="#linear-gradient-7"/>
    <linearGradient id="linear-gradient-22" x1="113.15" y1="33.12" x2="125.8" y2="33.12" xlink:href="#linear-gradient-7"/>
    <linearGradient id="linear-gradient-23" x1="17.97" y1="98.45" x2="41.67" y2="98.45" xlink:href="#linear-gradient-7"/>
    <linearGradient id="linear-gradient-24" x1="81.66" y1="28.8" x2="88.87" y2="28.8" xlink:href="#linear-gradient-7"/>
    <linearGradient id="linear-gradient-25" x1="22.6" y1="67.13" x2="45.59" y2="67.13" xlink:href="#linear-gradient-7"/>
    <linearGradient id="linear-gradient-26" x1="45.78" y1="41.36" x2="63.04" y2="41.36" xlink:href="#linear-gradient-7"/>
    <linearGradient id="linear-gradient-27" x1="63.01" y1="148.28" x2="75.53" y2="148.28" xlink:href="#linear-gradient"/>
    <linearGradient id="linear-gradient-28" x1="-964.67" y1="101.76" x2="-920.15" y2="101.76" gradientTransform="translate(-610.49) rotate(-180) scale(.78 -1)" xlink:href="#linear-gradient"/>
  </defs>
  <g id="Layer_1-2" data-name="Layer 1">
    <g>
      <g>
        <path class="cls-12" d="M157.63,114.43l1.76-.14c.08.64.28,1.17.58,1.58.3.41.78.74,1.42,1s1.36.38,2.17.38c.71,0,1.34-.1,1.89-.29.55-.19.95-.46,1.22-.79s.4-.7.4-1.1-.13-.75-.38-1.05c-.26-.3-.68-.55-1.27-.76-.38-.13-1.22-.34-2.51-.63-1.3-.28-2.2-.55-2.72-.8-.67-.32-1.18-.72-1.51-1.2s-.5-1.01-.5-1.6c0-.65.2-1.25.61-1.82.4-.56,1-.99,1.77-1.28s1.64-.44,2.59-.44c1.05,0,1.97.15,2.77.46.8.31,1.41.76,1.84,1.35.43.59.66,1.27.69,2.02l-1.79.12c-.1-.81-.42-1.42-.98-1.84-.55-.42-1.38-.62-2.46-.62s-1.95.19-2.47.56c-.52.38-.77.83-.77,1.36,0,.46.18.84.55,1.14.36.3,1.3.6,2.82.92,1.52.31,2.56.58,3.12.82.82.34,1.43.78,1.82,1.31.39.53.59,1.14.59,1.83s-.21,1.33-.64,1.93c-.43.6-1.05,1.07-1.85,1.41-.81.33-1.71.5-2.72.5-1.28,0-2.35-.17-3.21-.51-.86-.34-1.54-.85-2.03-1.53s-.75-1.45-.77-2.31Z"/>
        <path class="cls-12" d="M170.85,112.3c0-2.13.63-3.8,1.89-5,1.26-1.21,2.88-1.81,4.87-1.81,1.3,0,2.48.28,3.52.85,1.05.57,1.84,1.36,2.39,2.37.55,1.01.82,2.16.82,3.45s-.29,2.47-.87,3.49-1.4,1.8-2.45,2.33-2.2.79-3.43.79c-1.33,0-2.51-.29-3.56-.88-1.05-.58-1.84-1.38-2.38-2.39-.54-1.01-.81-2.08-.81-3.2ZM172.77,112.33c0,1.55.46,2.76,1.37,3.66.91.89,2.06,1.33,3.44,1.33s2.56-.45,3.47-1.35c.91-.9,1.36-2.17,1.36-3.83,0-1.04-.19-1.96-.58-2.74-.39-.78-.96-1.38-1.7-1.81-.75-.43-1.59-.64-2.52-.64-1.32,0-2.46.41-3.41,1.24-.95.83-1.43,2.21-1.43,4.14Z"/>
        <path class="cls-12" d="M186.67,118.55v-12.83h1.87v11.32h6.95v1.51h-8.82Z"/>
        <path class="cls-12" d="M196.16,118.55l5.42-12.83h2.01l5.77,12.83h-2.13l-1.65-3.89h-5.9l-1.55,3.89h-1.98ZM200.23,113.28h4.78l-1.47-3.55c-.45-1.08-.78-1.97-1-2.66-.18.82-.43,1.64-.76,2.45l-1.55,3.76Z"/>
        <path class="cls-12" d="M210.88,118.55v-12.83h6.26c1.26,0,2.21.12,2.87.35s1.18.64,1.57,1.22.59,1.23.59,1.93c0,.91-.32,1.68-.97,2.3-.65.62-1.65,1.02-3,1.19.49.22.87.43,1.13.64.54.46,1.06,1.02,1.55,1.71l2.45,3.49h-2.35l-1.87-2.67c-.54-.77-.99-1.36-1.35-1.77-.35-.41-.67-.69-.95-.86-.28-.16-.56-.28-.85-.34-.21-.04-.56-.06-1.04-.06h-2.17v5.7h-1.87ZM212.75,111.38h4.01c.85,0,1.52-.08,2-.24.48-.16.85-.42,1.1-.77.25-.35.38-.74.38-1.15,0-.61-.24-1.11-.73-1.5-.48-.39-1.25-.59-2.29-.59h-4.47v4.25Z"/>
        <path class="cls-12" d="M230.56,118.55v-12.83h5.32c.94,0,1.65.04,2.15.12.69.1,1.27.3,1.74.6.47.29.84.71,1.13,1.24.29.53.43,1.12.43,1.75,0,1.09-.38,2.02-1.14,2.77-.76.76-2.14,1.13-4.14,1.13h-3.62v5.22h-1.87ZM232.43,111.82h3.65c1.21,0,2.06-.2,2.57-.61.51-.41.76-.98.76-1.72,0-.54-.15-1-.45-1.38-.3-.38-.69-.63-1.18-.76-.31-.08-.9-.11-1.74-.11h-3.61v4.59Z"/>
        <path class="cls-12" d="M243.14,112.3c0-2.13.63-3.8,1.89-5,1.26-1.21,2.88-1.81,4.87-1.81,1.3,0,2.48.28,3.52.85,1.05.57,1.84,1.36,2.39,2.37.55,1.01.82,2.16.82,3.45s-.29,2.47-.87,3.49-1.4,1.8-2.45,2.33-2.2.79-3.43.79c-1.33,0-2.51-.29-3.56-.88-1.05-.58-1.84-1.38-2.38-2.39-.54-1.01-.81-2.08-.81-3.2ZM245.07,112.33c0,1.55.46,2.76,1.37,3.66.91.89,2.06,1.33,3.44,1.33s2.56-.45,3.47-1.35c.91-.9,1.36-2.17,1.36-3.83,0-1.04-.19-1.96-.58-2.74-.39-.78-.96-1.38-1.7-1.81-.75-.43-1.59-.64-2.52-.64-1.32,0-2.46.41-3.41,1.24-.95.83-1.43,2.21-1.43,4.14Z"/>
        <path class="cls-12" d="M261.51,118.55l-3.74-12.83h1.92l2.15,8.41c.23.88.43,1.76.6,2.63.36-1.37.57-2.16.64-2.37l2.69-8.67h2.25l2.02,6.5c.51,1.61.87,3.13,1.1,4.54.18-.81.41-1.74.7-2.79l2.21-8.25h1.88l-3.87,12.83h-1.8l-2.97-9.78c-.25-.82-.4-1.32-.44-1.51-.15.59-.29,1.09-.41,1.51l-2.99,9.78h-1.91Z"/>
        <path class="cls-12" d="M277.69,118.55v-12.83h10.2v1.51h-8.33v3.93h7.8v1.51h-7.8v4.37h8.66v1.51h-10.53Z"/>
        <path class="cls-12" d="M290.82,118.55v-12.83h6.26c1.26,0,2.21.12,2.87.35s1.18.64,1.57,1.22.59,1.23.59,1.93c0,.91-.32,1.68-.97,2.3-.65.62-1.65,1.02-3,1.19.49.22.87.43,1.13.64.54.46,1.06,1.02,1.55,1.71l2.45,3.49h-2.35l-1.87-2.67c-.54-.77-.99-1.36-1.35-1.77-.35-.41-.67-.69-.95-.86-.28-.16-.56-.28-.85-.34-.21-.04-.56-.06-1.04-.06h-2.17v5.7h-1.87ZM292.69,111.38h4.01c.85,0,1.52-.08,2-.24.48-.16.85-.42,1.1-.77.25-.35.38-.74.38-1.15,0-.61-.24-1.11-.73-1.5-.48-.39-1.25-.59-2.29-.59h-4.47v4.25Z"/>
        <path class="cls-5" d="M180.91,133.61l-.41-.62c-.52.5-1.13.74-1.82.74-1.2,0-2.15-.72-2.15-2.21,0-1.04.47-1.7,1.28-2.47l-.21-.3c-.36-.54-.77-1.24-.77-2.07,0-1.14.84-1.98,2.14-1.98,1.23,0,2.06.74,2.06,1.9,0,.94-.32,1.39-1.5,2.57l.92,1.31c.11-.35.21-.77.32-1.26h1.46c-.25,1.04-.52,1.88-.87,2.55l1.31,1.85h-1.75ZM179.82,132.01l-1.27-1.85c-.39.44-.57.78-.57,1.31,0,.77.43,1.02.96,1.02.33,0,.61-.11.87-.48ZM178.23,126.68c0,.39.15.87.57,1.47.59-.54.88-.92.88-1.47,0-.52-.25-.79-.7-.79s-.74.31-.74.79Z"/>
        <path class="cls-5" d="M186.65,124.82h4.15v1.26h-2.69v2.45h2.14v1.26h-2.14v2.57h2.69v1.26h-4.15v-8.79Z"/>
        <path class="cls-5" d="M192.03,124.82h1.46v7.54h2.61v1.26h-4.07v-8.79Z"/>
        <path class="cls-5" d="M197.23,124.82h4.15v1.26h-2.69v2.45h2.14v1.26h-2.14v2.57h2.69v1.26h-4.15v-8.79Z"/>
        <path class="cls-5" d="M202.49,131.65v-4.87c0-1.23.92-2.08,2.29-2.08s2.29.85,2.29,2.08v1.03h-1.43v-1.03c0-.52-.34-.83-.84-.83s-.84.31-.84.83v4.87c0,.51.34.83.84.83s.84-.31.84-.83v-1.26h1.43v1.26c0,1.23-.92,2.08-2.29,2.08s-2.29-.85-2.29-2.08Z"/>
        <path class="cls-5" d="M208,124.82h4.66v1.26h-1.6v7.54h-1.46v-7.54h-1.6v-1.26Z"/>
        <path class="cls-5" d="M217.07,133.61l-1.06-3.63h-.76v3.63h-1.46v-8.79h2.29c1.39,0,2.29.83,2.29,2.1v.97c0,.82-.37,1.44-1.01,1.8l1.23,3.93h-1.52ZM215.25,128.73h.76c.57,0,.9-.3.9-.82v-1.02c0-.51-.33-.82-.9-.82h-.76v2.65Z"/>
        <path class="cls-5" d="M219.79,124.82h1.46v8.79h-1.46v-8.79Z"/>
        <path class="cls-5" d="M222.73,131.65v-4.87c0-1.23.92-2.08,2.29-2.08s2.29.85,2.29,2.08v1.03h-1.43v-1.03c0-.52-.35-.83-.84-.83s-.84.31-.84.83v4.87c0,.51.35.83.84.83s.84-.31.84-.83v-1.26h1.43v1.26c0,1.23-.92,2.08-2.29,2.08s-2.29-.85-2.29-2.08Z"/>
        <path class="cls-5" d="M231.53,131.67h-1.57l-.32,1.95h-1.46l1.6-8.79h1.96l1.6,8.79h-1.49l-.32-1.95ZM231.34,130.39l-.59-3.68-.59,3.68h1.19Z"/>
        <path class="cls-5" d="M234.47,124.82h1.46v7.54h2.61v1.26h-4.07v-8.79Z"/>
        <path class="cls-5" d="M242.1,131.58v-.31l1.41-.14v.33c0,.64.36,1.03.94,1.03s.94-.33.94-.84c0-.55-.25-.95-1.34-1.9-1.45-1.24-1.86-1.92-1.86-2.89,0-1.31.83-2.16,2.22-2.16s2.22.85,2.22,2.17v.23l-1.41.14v-.25c0-.68-.29-1.03-.8-1.03s-.8.29-.8.84.3.96,1.34,1.9c1.41,1.28,1.86,1.92,1.86,2.89,0,1.26-.97,2.16-2.36,2.16s-2.36-.9-2.36-2.16Z"/>
        <path class="cls-5" d="M248.06,124.82h4.15v1.26h-2.69v2.45h2.14v1.26h-2.14v2.57h2.69v1.26h-4.15v-8.79Z"/>
        <path class="cls-5" d="M256.73,133.61l-1.06-3.63h-.76v3.63h-1.46v-8.79h2.29c1.39,0,2.29.83,2.29,2.1v.97c0,.82-.37,1.44-1.01,1.8l1.23,3.93h-1.52ZM254.91,128.73h.76c.57,0,.9-.3.9-.82v-1.02c0-.51-.33-.82-.9-.82h-.76v2.65Z"/>
        <path class="cls-5" d="M264.11,124.82l-1.6,8.79h-1.96l-1.6-8.79h1.49l1.1,6.91,1.1-6.91h1.46Z"/>
        <path class="cls-5" d="M265.24,124.82h1.46v8.79h-1.46v-8.79Z"/>
        <path class="cls-5" d="M268.18,131.65v-4.87c0-1.23.92-2.08,2.29-2.08s2.29.85,2.29,2.08v1.03h-1.43v-1.03c0-.52-.34-.83-.84-.83s-.84.31-.84.83v4.87c0,.51.34.83.84.83s.84-.31.84-.83v-1.26h1.43v1.26c0,1.23-.92,2.08-2.29,2.08s-2.29-.85-2.29-2.08Z"/>
        <path class="cls-5" d="M274.1,124.82h4.15v1.26h-2.69v2.45h2.14v1.26h-2.14v2.57h2.69v1.26h-4.15v-8.79Z"/>
        <path class="cls-5" d="M279.15,131.58v-.31l1.41-.14v.33c0,.64.36,1.03.94,1.03s.94-.33.94-.84c0-.55-.25-.95-1.34-1.9-1.45-1.24-1.86-1.92-1.86-2.89,0-1.31.83-2.16,2.22-2.16s2.22.85,2.22,2.17v.23l-1.41.14v-.25c0-.68-.29-1.03-.8-1.03s-.8.29-.8.84.3.96,1.34,1.9c1.41,1.28,1.86,1.92,1.86,2.89,0,1.26-.97,2.16-2.36,2.16s-2.36-.9-2.36-2.16Z"/>
      </g>
      <g>
        <path class="cls-8" d="M171.08,86.13h36.54v12.18h-48.72v-42.63h54.81l-12.18,12.18h-30.45v3.04h30.45v12.18h-30.45v3.04Z"/>
        <path class="cls-8" d="M262.42,55.68l-12.18,12.18h-12.18v22.84l-12.18,12.18v-35.02h-18.27v-12.18h54.81Z"/>
        <path class="cls-8" d="M286.78,98.31h-1.52l-12.18-12.18h13.7c2.52,0,4.67-.89,6.46-2.68,1.79-1.79,2.68-3.94,2.68-6.46s-.89-4.67-2.68-6.46c-1.79-1.79-3.94-2.68-6.46-2.68h-15.22v35.02l-12.18-12.18v-35.01h27.4c5.89,0,10.91,2.08,15.07,6.24s6.24,9.18,6.24,15.07-2.08,10.91-6.24,15.07c-4.16,4.16-9.19,6.24-15.07,6.24Z"/>
      </g>
      <g>
        <path class="cls-4" d="M13.9,137.54c-.28.05-.35-.15-.43-.27-.54-.85-1.07-1.71-1.58-2.57-.22-.36-.07-.59.31-.8,2.54-1.4,5.08-2.82,7.61-4.23,4.79-2.67,9.59-5.34,14.38-8.01,4.09-2.28,8.19-4.54,12.28-6.82.45-.25.74-.25,1.01.24.41.76.83,1.51,1.33,2.21.4.57.14.83-.35,1.1-1.3.72-2.6,1.44-3.9,2.17-2.49,1.39-4.99,2.78-7.48,4.16-4.31,2.38-8.63,4.76-12.93,7.14-3.16,1.75-6.3,3.52-9.45,5.28-.28.15-.56.29-.79.41Z"/>
        <path class="cls-20" d="M69.22,136.19c-.14.25-.33.58-.53.91-2.64,4.42-5.28,8.83-7.93,13.24-2.13,3.55-4.28,7.08-6.41,10.63-1.67,2.77-3.32,5.54-4.98,8.31-.26.44-.37.71-1.07.36-.8-.4-1.56-.88-2.38-1.23-.58-.25-.42-.6-.2-.97.62-1.02,1.25-2.04,1.87-3.07,3.22-5.38,6.43-10.77,9.65-16.14,2.45-4.08,4.92-8.15,7.39-12.23.31-.51.61-1.03.91-1.55.17-.29.37-.41.71-.21.91.52,1.84,1.01,2.75,1.52.12.07.26.15.21.43Z"/>
        <path class="cls-22" d="M57.8,128.06c-.1.29-22.77,21.88-24.28,23.35-.43.42-.76.49-1.2.03-.62-.64-1.27-1.27-1.93-1.88-.41-.38-.32-.67.07-1,1.33-1.15,24.05-22.53,24.32-23.09.11-.22.37-.08.51.06.48.47,2.4,2.32,2.52,2.53Z"/>
        <path class="cls-31" d="M63.06,132.28c-.03.32-.21.47-.34.63-3.42,4.22-6.85,8.44-10.27,12.67-2.12,2.62-4.23,5.24-6.33,7.87-.32.4-.56.45-.96.14-.75-.58-1.51-1.15-2.27-1.71-.33-.24-.42-.44-.12-.81,3.12-3.84,6.22-7.7,9.34-11.56,2.43-3.01,4.88-6.01,7.29-9.04.39-.49.69-.59,1.19-.18.68.55,1.39,1.05,2.09,1.58.17.13.35.26.38.41Z"/>
        <path class="cls-11" d="M18.06,119.25c-.09-.49.09-.63.34-.72,2.55-1.01,5.1-2.02,7.65-3.03,2.67-1.05,5.33-2.11,8-3.17,3.21-1.27,6.43-2.53,9.64-3.81.37-.15.57-.16.74.24.37.88.78,1.74,1.17,2.62.17.39.09.66-.36.83-1.62.64-3.22,1.31-4.84,1.95-2.32.92-4.65,1.82-6.97,2.74-3.49,1.38-6.97,2.77-10.46,4.15-.93.37-1.87.73-2.78,1.14-.51.23-.82.16-1.03-.36-.38-.93-.78-1.84-1.09-2.59Z"/>
        <path class="cls-7" d="M34.85,136.87c-.27.03-.32-.12-.41-.23-.67-.82-1.34-1.63-2-2.46-.29-.36-.02-.54.25-.74,2.27-1.67,4.52-3.35,6.79-5.02,3.4-2.51,6.78-5.02,10.2-7.5,1.17-.85.83-.99,1.81.19.43.52.81,1.07,1.27,1.57.43.46.37.76-.14,1.13-1.45,1.03-2.86,2.09-4.29,3.14-2.46,1.81-4.93,3.62-7.39,5.43-1.91,1.41-3.83,2.81-5.74,4.22-.13.1-.27.2-.35.25Z"/>
        <g>
          <path class="cls-21" d="M66,47.19c-.36-.05-.47-.34-.61-.57-.77-1.27-1.53-2.54-2.3-3.81-1.4-2.34-2.8-4.68-4.2-7.02-2.49-4.17-4.98-8.34-7.48-12.5-1.83-3.06-3.68-6.11-5.52-9.15-.59-.98-.6-.97.42-1.52.67-.36,1.33-.73,1.98-1.11.45-.26.72-.21,1,.27,1.61,2.74,3.25,5.47,4.89,8.2,1.63,2.71,3.26,5.41,4.89,8.12,2.36,3.92,4.71,7.84,7.07,11.75.97,1.62,1.93,3.24,2.92,4.85.29.47.26.75-.28,1.01-.83.41-1.63.88-2.44,1.32-.11.06-.22.11-.33.17Z"/>
          <path class="cls-25" d="M46.87,66.63c-.27-.14-.63-.31-.97-.5-5.24-2.92-10.48-5.85-15.72-8.76-5.82-3.23-11.64-6.45-17.47-9.67-.21-.12-.42-.25-.63-.37-.34-.18-.36-.44-.19-.72.5-.85,1.02-1.68,1.52-2.52.21-.35.42-.41.82-.19,2.12,1.2,4.27,2.36,6.4,3.54,3.26,1.81,6.51,3.64,9.77,5.45,4.58,2.55,9.16,5.1,13.75,7.65,1.41.78,2.82,1.55,4.24,2.31.54.29.83.59.4,1.21-.5.73-.92,1.51-1.37,2.27-.1.17-.21.33-.54.3Z"/>
          <path class="cls-23" d="M142.95,13.38c-.06.11-.13.26-.21.4-1.88,3.11-3.76,6.22-5.63,9.34-2.28,3.79-4.55,7.6-6.82,11.39-2.42,4.04-4.84,8.08-7.25,12.13-.28.47-.56.7-1.15.32-.75-.49-1.56-.9-2.36-1.32-.45-.23-.43-.51-.21-.88,1.68-2.76,3.35-5.52,5.01-8.29,2.13-3.55,4.26-7.1,6.39-10.65,2.02-3.37,4.03-6.74,6.04-10.11.8-1.33,1.62-2.65,2.41-3.99.19-.33.42-.49.77-.31.94.51,1.87,1.06,2.8,1.59.13.07.26.15.22.37Z"/>
          <path class="cls-30" d="M92.08,19.77c0-5.33,0-10.66,0-16,0-1.02.04-2.05.04-3.07,0-.47.15-.72.68-.71.94.01,1.88,0,2.82,0,.46,0,.67.18.67.64,0,1.38.09,2.76.03,4.13-.08,1.97-.04,3.93-.04,5.9,0,9,0,18,0,27,0,2.04.28,1.8-1.88,1.81-.54,0-1.09-.01-1.63,0-.48.01-.68-.2-.65-.64,0-.14,0-.29,0-.43,0-6.21,0-12.43,0-18.64-.01,0-.03,0-.04,0Z"/>
          <path class="cls-10" d="M20.56,92.64c-6.03,0-12.07,0-18.1,0-.59,0-1.18-.01-1.78,0-.47.01-.69-.18-.69-.63,0-.88.01-1.76,0-2.64,0-.42.25-.52.61-.54,1.42-.09,2.84-.21,4.27-.21,11.37.02,22.75.01,34.12.01q2.03,0,2.03,1.95t-2.15,2.05c-6.11,0-12.21,0-18.32,0Z"/>
          <path class="cls-1" d="M78.57,41.8c-.41.06-.53-.2-.62-.49-.38-1.33-8.37-29.43-8.89-31.21-.26-.89-.22-1.02.69-1.25.79-.2,1.6-.33,2.36-.59.69-.24.91.11,1.06.6.34,1.16.65,2.34.98,3.5.69,2.42,1.38,4.85,2.07,7.27.81,2.86,4.41,15.51,5.41,18.99.15.53.32,1.04.47,1.57.07.25.15.56-.21.67-1.11.33-2.22.63-3.33.95Z"/>
          <path class="cls-13" d="M43.31,75.72c-.3,1.09-.58,2.13-.87,3.16-.09.33-.35.33-.65.25-1.55-.39-3.1-.77-4.65-1.16-2.52-.64-5.05-1.28-7.57-1.94-2.45-.63-4.9-1.29-7.35-1.92-3.05-.79-6.1-1.57-9.14-2.35-1.33-.34-2.67-.69-4-1.02-.6-.15-.78-.41-.56-1.02.29-.8.48-1.64.69-2.47.12-.46.33-.62.84-.48,3.1.88,6.23,1.63,9.35,2.46,2.76.74,5.53,1.4,8.29,2.12,2.48.64,4.95,1.3,7.42,1.94,2.5.65,5,1.28,7.51,1.92.33.08.7.09.7.5Z"/>
          <path class="cls-19" d="M120.05,9.76c0,.61-.32,1.19-.49,1.81-.65,2.31-1.35,4.61-2.03,6.92-.66,2.26-1.31,4.52-1.98,6.78-.51,1.76-1.04,3.51-1.55,5.27-.67,2.3-1.34,4.61-2.02,6.91-.39,1.32-.81,2.64-1.2,3.96-.1.33-.24.5-.63.39-1.07-.3-2.13-.58-3.2-.88-.36-.1-.24-.35-.18-.58.48-1.62.96-3.24,1.44-4.86.69-2.38,1.37-4.76,2.07-7.13.5-1.71,1.03-3.42,1.54-5.13.81-2.74,1.61-5.48,2.41-8.22.61-2.08,1.22-4.15,1.81-6.24.13-.46.45-.45.8-.36.97.26,1.94.55,2.91.81.28.08.33.25.29.54Z"/>
          <path class="cls-9" d="M9.84,113.86c-.47.12-.66,0-.77-.46-.2-.88-.45-1.75-.74-2.61-.15-.47.02-.67.45-.78,1.79-.45,23.09-5.78,24.9-6.24,2.58-.66,5.15-1.31,7.73-1.97.62-.16.96.03,1.09.67.17.84.4,1.66.63,2.49.1.38.01.58-.39.68-2.96.72-5.92,1.45-8.88,2.19-1.81.45-3.62.93-5.43,1.38-1.62.41-16.42,4.09-18.59,4.64Z"/>
          <path class="cls-16" d="M33.26,29.17c.29.03.41.22.57.37,3.77,3.64,7.55,7.27,11.32,10.91,4.05,3.9,8.09,7.81,12.14,11.71.87.84.87.83,0,1.65-.49.47-.99.93-1.46,1.42-.42.45-.75.46-1.21,0-1.74-1.72-3.52-3.4-5.27-5.1-6.06-5.86-12.12-11.73-18.18-17.59-.76-.73-.76-.74-.02-1.47.55-.54,1.11-1.07,1.67-1.6.14-.13.31-.22.45-.31Z"/>
          <path class="cls-2" d="M102.4,40.12c-.9-.14-1.8-.29-2.71-.41-.38-.05-.56-.19-.49-.61.39-2.63.78-5.27,1.14-7.9.49-3.58.96-7.16,1.45-10.74.33-2.4.67-4.8.98-7.21.08-.65.37-.83,1.03-.71.8.15,1.61.21,2.43.27.61.04.8.3.72.88-.34,2.3-.66,4.61-.97,6.92-.37,2.73-.73,5.47-1.1,8.2-.37,2.71-.76,5.41-1.14,8.12-.11.8-.2,1.6-.33,2.4-.13.79-.15.79-1,.79Z"/>
          <path class="cls-28" d="M14.13,78.61c1.93.24,3.67.45,5.41.67,2.2.27,4.41.55,6.61.83,4.97.63,9.94,1.28,14.91,1.9.53.07.67.25.6.72-.14.89-.28,1.79-.38,2.68-.05.48-.28.59-.73.53-1.86-.23-3.73-.44-5.59-.67-3.31-.41-6.61-.82-9.92-1.24-3.72-.47-7.44-.93-11.16-1.42-1.01-.13-.99-.15-.85-1.09.1-.68.18-1.37.22-2.06.04-.69.32-1.02.88-.85Z"/>
          <path class="cls-3" d="M145.33,29.44c-.14.22-.28.47-.46.7-2.84,3.57-5.69,7.14-8.53,10.71-2.5,3.14-4.99,6.28-7.47,9.43-.75.95-.74.96-1.69.22-.61-.47-1.22-.96-1.87-1.38-.44-.29-.37-.51-.1-.86,2.5-3.14,4.99-6.28,7.49-9.43,2.91-3.67,5.82-7.34,8.72-11.02.7-.89.73-.9,1.65-.21.6.45,1.22.88,1.83,1.33.17.13.37.25.42.51Z"/>
          <path class="cls-18" d="M53.16,57.98c-.08.11-.16.23-.24.34-.47.61-.95,1.21-1.42,1.81-.74.94-.74.95-1.74.21-2.12-1.57-4.24-3.16-6.36-4.73-4.88-3.6-9.77-7.2-14.66-10.79-.45-.33-.59-.56-.18-1.02.57-.65,1.08-1.35,1.6-2.04.32-.43.59-.48,1.07-.12,3.62,2.7,7.26,5.36,10.89,8.04,3.47,2.56,6.94,5.13,10.41,7.7.23.17.5.32.64.6Z"/>
          <path class="cls-6" d="M61.36,19.32c-.18-.4-.15-.64.32-.81.87-.32,1.73-.68,2.59-1.04.47-.2.76-.05.94.37.78,1.82,1.55,3.64,2.32,5.46.55,1.29,5.56,12.93,6.94,16.12.38.88.71,1.77,1.1,2.64.17.37.07.56-.3.71-.91.36-1.81.74-2.72,1.12-.44.19-.62-.03-.77-.39-.99-2.3-1.99-4.6-2.97-6.9-.62-1.45-6.03-14.06-7.44-17.29Z"/>
          <path class="cls-17" d="M125.8,23.84c-.19.44-.38.92-.59,1.4-1.46,3.34-2.92,6.68-4.38,10.01-1.19,2.71-2.38,5.41-3.58,8.11-.39.88-.41.89-1.32.55-.78-.29-1.54-.61-2.32-.92-.45-.18-.57-.42-.36-.89.98-2.2,1.93-4.41,2.9-6.61,1.03-2.36,2.08-4.71,3.12-7.07.87-1.98,1.74-3.96,2.6-5.94.15-.35.35-.46.75-.29.92.4,1.85.77,2.78,1.15.21.09.42.17.4.49Z"/>
          <path class="cls-14" d="M17.98,98.25c-.11-.38.38-.47.87-.53,1.69-.21,3.38-.41,5.07-.62,3.38-.41,6.76-.83,10.14-1.24,2.03-.25,4.06-.49,6.1-.72.6-.07,1.09.02,1.13.8.04.73.2,1.46.35,2.18.14.71-.14,1.02-.87,1.03-.94.01-1.86.2-2.8.31-4.24.51-8.48.99-12.71,1.5-1.96.24-3.92.5-5.87.78-.64.09-.93-.04-.96-.74-.04-.83-.25-1.64-.43-2.76Z"/>
          <path class="cls-26" d="M81.7,18.64c-.18-.58.17-.81.9-.85.84-.04,1.67-.17,2.49-.32.47-.08.63.07.69.49.43,3.04.87,6.07,1.31,9.11.4,2.71.8,5.41,1.2,8.12.19,1.29.36,2.59.56,3.88.07.44-.1.66-.57.71-.98.11-1.96.23-2.94.37-.39.06-.5-.12-.59-.45-.34-1.3-.38-2.64-.59-3.95-.53-3.29-1-6.59-1.47-9.88-.34-2.35-.65-4.71-1-7.23Z"/>
          <path class="cls-15" d="M24.33,61.18c.77.29,1.59.6,2.41.92,2.81,1.09,5.62,2.18,8.42,3.29,3.12,1.22,6.24,2.46,9.36,3.69.18.07.37.12.56.18.47.17.65.41.39.92-.4.79-.75,1.6-1.05,2.43-.19.54-.49.56-.96.38-1.91-.75-3.83-1.51-5.75-2.25-3.53-1.38-7.07-2.75-10.61-4.13-1.39-.54-2.77-1.11-4.16-1.66-.3-.12-.45-.23-.3-.58.42-.96.81-1.93,1.22-2.89.06-.15.17-.3.44-.29Z"/>
          <path class="cls-27" d="M63.04,48.94c0,.22-.17.34-.32.45-.76.57-1.53,1.12-2.27,1.7-.38.3-.65.22-.93-.12-3.27-4.06-6.55-8.12-9.83-12.19-1.22-1.52-2.43-3.05-3.68-4.55-.33-.39-.3-.63.1-.92.74-.54,1.47-1.11,2.21-1.66.37-.28.65-.29.98.13,2.6,3.25,5.24,6.47,7.86,9.71,1.86,2.3,3.71,4.6,5.57,6.9.14.17.31.31.32.55Z"/>
        </g>
        <path class="cls-24" d="M66.36,159.28c-1.06-.44-2.12-.88-3.17-1.34-.28-.12-.15-.37-.07-.56.77-1.8,7.4-17.13,8.47-19.63.2-.48.51-.59.99-.38.79.33,1.58.67,2.38.96.61.22.69.57.45,1.1-.67,1.5-8.13,18.75-8.46,19.47-.11.24-.26.42-.59.38Z"/>
      </g>
      <circle class="cls-32" cx="94.49" cy="90.47" r="52.98"/>
      <g>
        <path class="cls-8" d="M62.45,112.12l-12.04-2.03-3.65-18.2-.1-3.34c.58,0,15.21.14,15.79.14v23.43Z"/>
        <path class="cls-8" d="M47.11,85.65c1.56-6.13,6.87-18.08,9.44-23.28q.11-.3,6.43,0c-.49,22.56,0-.16-.48,22.4-.14,1.12,0,.92-2.84.92-7.33,0-7.48-.04-12.54-.04Z"/>
        <path class="cls-8" d="M117.36,60.22l-.16-12.65c5.11,4.35,14.65,12.65,14.65,12.65h-14.49Z"/>
        <path class="cls-8" d="M51.92,114.3l10.53.55v11.77c-3.01-3.25-10.53-12.32-10.53-12.32Z"/>
        <rect class="cls-8" x="65.28" y="62.37" width="23.32" height="23.32"/>
        <polygon class="cls-8" points="88.6 60.22 65.28 60.22 67.44 50.37 88.6 43.36 88.6 60.22"/>
        <rect class="cls-8" x="65.02" y="88.54" width="23.57" height="23.57"/>
        <rect class="cls-8" x="91.01" y="62.37" width="23.32" height="23.32"/>
        <polygon class="cls-8" points="114.56 60.22 91.24 60.22 91.24 43.36 114.56 47.03 114.56 60.22"/>
        <rect class="cls-8" x="90.75" y="88.54" width="23.57" height="23.57"/>
        <polygon class="cls-8" points="88.6 136.95 65.02 128.62 65.02 114.66 88.6 114.66 88.6 136.95"/>
      </g>
      <path class="cls-29" d="M110.43,122.53s-3.76-9.16.42-18.65c0,0,.38,2.46,1.82,5.33,0,0-.89-7.54,4.13-13.98,4.72-6.06,13.38-15.81,10.83-28.45,0,0,8.13,10.36,7.2,20.97,0,0,1.54-1.27,1.81-3.12,0,0,3.94,23.41-7.13,33.67,0,0,1.9.05,4.41-.69,0,0-9.48,15.61-21.74,7.86,0,0,14.11-7.72,17.05-32.13,0,0-3.8,21.26-17.84,30.72,0,0-5.14,4.29-6.87,12.68l-1.72-.67s.41-6.33,7.63-13.54Z"/>
    </g>
  </g>
</svg>